<svg width="62" height="32" viewBox="0 0 62 32" fill="none" xmlns="http://www.w3.org/2000/svg">
<rect x="0.5" y="0.5" width="61" height="31" rx="2.5" fill="white"/>
<path d="M48.7974 24.0512C48.7974 27.0503 46.3552 29.4925 43.3561 29.4925H13.75V7.94135C13.75 4.94218 16.1922 2.5 19.1913 2.5H48.7974V24.0512V24.0512Z" fill="white"/>
<path d="M39.1602 18.5243H41.4095C41.4738 18.5243 41.6238 18.5029 41.688 18.5029C42.1165 18.4172 42.4807 18.0316 42.4807 17.4961C42.4807 16.9819 42.1165 16.5963 41.688 16.4892C41.6238 16.4678 41.4952 16.4678 41.4095 16.4678H39.1602V18.5243Z" fill="url(#paint0_linear_16526_155544)"/>
<path d="M41.1508 4.32129C39.0085 4.32129 37.2519 6.05652 37.2519 8.22021V12.2691H42.7575C42.886 12.2691 43.036 12.2691 43.1431 12.2905C44.3856 12.3548 45.3068 12.9975 45.3068 14.1114C45.3068 14.9898 44.6855 15.7395 43.5287 15.8895V15.9324C44.7927 16.018 45.7567 16.725 45.7567 17.8175C45.7567 18.9958 44.6855 19.767 43.2717 19.767H37.2305V27.6934H42.9503C45.0926 27.6934 46.8492 25.9581 46.8492 23.7945V4.32129H41.1508V4.32129Z" fill="url(#paint1_linear_16526_155544)"/>
<path d="M42.2022 14.3684C42.2022 13.8542 41.838 13.5115 41.4095 13.4472C41.3667 13.4472 41.2596 13.4258 41.1953 13.4258H39.1602V15.311H41.1953C41.2596 15.311 41.3881 15.311 41.4095 15.2896C41.838 15.2253 42.2022 14.8825 42.2022 14.3684V14.3684Z" fill="url(#paint2_linear_16526_155544)"/>
<path d="M19.6 4.32129C17.4578 4.32129 15.7011 6.05652 15.7011 8.2202V17.839C16.7937 18.3745 17.9291 18.7173 19.0645 18.7173C20.4141 18.7173 21.1425 17.9032 21.1425 16.7892V12.2477H24.4844V16.7678C24.4844 18.5245 23.3918 19.9598 19.6857 19.9598C17.4363 19.9598 15.6797 19.4671 15.6797 19.4671V27.6719H21.3995C23.5418 27.6719 25.2984 25.9367 25.2984 23.773V4.32129H19.6V4.32129Z" fill="url(#paint3_linear_16526_155544)"/>
<path d="M30.3755 4.32129C28.2332 4.32129 26.4766 6.05652 26.4766 8.22021V13.3188C27.462 12.4833 29.1758 11.9477 31.9393 12.0763C33.4175 12.1405 35.0028 12.5476 35.0028 12.5476V14.1971C34.2101 13.7901 33.2675 13.4259 32.0464 13.3402C29.947 13.1903 28.6831 14.2185 28.6831 16.018C28.6831 17.839 29.947 18.8672 32.0464 18.6959C33.2675 18.6102 34.2101 18.2246 35.0028 17.839V19.4885C35.0028 19.4885 33.4389 19.8955 31.9393 19.9598C29.1758 20.0883 27.462 19.5528 26.4766 18.7173V27.7148H32.1964C34.3387 27.7148 36.0953 25.9796 36.0953 23.8159V4.32129H30.3755V4.32129Z" fill="url(#paint4_linear_16526_155544)"/>
<rect x="0.5" y="0.5" width="61" height="31" rx="2.5" stroke="#EEEEEE"/>
<defs>
<linearGradient id="paint0_linear_16526_155544" x1="37.25" y1="17.4986" x2="46.8767" y2="17.4986" gradientUnits="userSpaceOnUse">
<stop stop-color="#007940"/>
<stop offset="0.2285" stop-color="#00873F"/>
<stop offset="0.7433" stop-color="#40A737"/>
<stop offset="1" stop-color="#5CB531"/>
</linearGradient>
<linearGradient id="paint1_linear_16526_155544" x1="37.248" y1="15.998" x2="46.8755" y2="15.998" gradientUnits="userSpaceOnUse">
<stop stop-color="#007940"/>
<stop offset="0.2285" stop-color="#00873F"/>
<stop offset="0.7433" stop-color="#40A737"/>
<stop offset="1" stop-color="#5CB531"/>
</linearGradient>
<linearGradient id="paint2_linear_16526_155544" x1="37.2497" y1="14.3657" x2="46.8768" y2="14.3657" gradientUnits="userSpaceOnUse">
<stop stop-color="#007940"/>
<stop offset="0.2285" stop-color="#00873F"/>
<stop offset="0.7433" stop-color="#40A737"/>
<stop offset="1" stop-color="#5CB531"/>
</linearGradient>
<linearGradient id="paint3_linear_16526_155544" x1="15.6966" y1="15.998" x2="25.4724" y2="15.998" gradientUnits="userSpaceOnUse">
<stop stop-color="#1F286F"/>
<stop offset="0.4751" stop-color="#004E94"/>
<stop offset="0.8261" stop-color="#0066B1"/>
<stop offset="1" stop-color="#006FBC"/>
</linearGradient>
<linearGradient id="paint4_linear_16526_155544" x1="26.4212" y1="15.998" x2="35.9157" y2="15.998" gradientUnits="userSpaceOnUse">
<stop stop-color="#6C2C2F"/>
<stop offset="0.1735" stop-color="#882730"/>
<stop offset="0.5731" stop-color="#BE1833"/>
<stop offset="0.8585" stop-color="#DC0436"/>
<stop offset="1" stop-color="#E60039"/>
</linearGradient>
</defs>
</svg>
